<svg width="274" height="169" viewBox="0 0 274 169" fill="none" xmlns="http://www.w3.org/2000/svg">
<path d="M102.679 112.761H67.1998C61.3552 112.761 56.6177 108.044 56.6177 102.225V66.9028C56.6177 61.084 61.3552 56.3675 67.1998 56.3675H102.679C108.524 56.3675 113.261 61.084 113.261 66.9028V102.225C113.261 108.044 108.524 112.761 102.679 112.761Z" fill="url(#paint0_linear_132_6101)"/>
<path d="M79.1979 80.4371L82.648 77.0023C82.0558 76.4127 81.4894 75.8488 80.8972 75.2592L79.1464 77.0023L77.3956 75.2592L79.1464 73.5161C78.5542 72.9266 77.9878 72.3626 77.3956 71.7731L73.9197 75.2336L75.6705 76.9766L77.4213 78.7197L75.722 80.4115H79.1979V80.4371Z" fill="white"/>
<path d="M75.6705 70.0556L73.9197 68.3126H95.6502L77.1381 86.7173V90.511L104.147 63.6217H65.7322L73.9455 71.7987L75.6705 70.0556Z" fill="white"/>
<path d="M83.7294 96.9449H87.2052L89.5739 94.6123L95.9592 100.969H74.2287L92.7408 82.5391V78.771L65.7322 105.635H104.147L89.5739 91.1262L83.7294 96.9449Z" fill="white"/>
<path d="M82.6268 109.216L84.939 111.518L87.2511 109.216L84.939 106.914L82.6268 109.216Z" fill="white"/>
<path d="M197.248 83.7694V68.9278H191.429V83.7694H185.61V99.6108H191.429V83.7694L204.895 99.6108H212.078L197.248 83.7694Z" fill="#513084"/>
<path d="M210.611 68.9278L197.248 83.7694H204.148L217.846 69.0816V68.9278H210.611Z" fill="#513084"/>
<path d="M169.647 68.9278H163.648L177.114 99.6108H183.473L169.647 68.9278Z" fill="#513084"/>
<path d="M154.508 88.4091L149.462 99.6108H155.77L158.422 93.8177H169.493L172.222 88.4091H154.508Z" fill="#513084"/>
<path d="M141.377 86.4866C141.377 91.1262 138.905 94.7661 133.627 94.7661C128.375 94.7661 125.826 92.1003 125.826 86.8198H120.11C120.11 95.5095 125.749 100.2 133.627 100.2C142.124 100.2 147.196 94.4073 147.196 86.4866V74.3108L141.377 80.1039V86.4866Z" fill="#513084"/>
<path d="M135.558 68.9278V74.3108H141.377H147.17V68.9278H135.558Z" fill="#513084"/>
<defs>
<linearGradient id="paint0_linear_132_6101" x1="66.5263" y1="64.0404" x2="103.547" y2="105.672" gradientUnits="userSpaceOnUse">
<stop stop-color="#342876"/>
<stop offset="0.4512" stop-color="#753996"/>
<stop offset="1" stop-color="#B6529F"/>
</linearGradient>
</defs>
</svg>
